<svg xmlns="http://www.w3.org/2000/svg" viewBox="0 0 32 32" width="32" height="32">
  <defs>
    <linearGradient id="infinityFavGradient" x1="0%" y1="0%" x2="100%" y2="0%">
      <stop offset="0%" style="stop-color:#5A1A1A;stop-opacity:1" />
      <stop offset="50%" style="stop-color:#8B3A3A;stop-opacity:1" />
      <stop offset="100%" style="stop-color:#5A1A1A;stop-opacity:1" />
    </linearGradient>
  </defs>
  
  <!-- Simplified infinity symbol for favicon -->
  <path d="M 8,16 C 8,12 10,10 13,10 C 16,10 17,12 19,14 C 21,16 22,16 24,16 C 26,16 28,14 28,11 C 28,8 26,6 23,6 C 20,6 18,8 16,10 C 14,12 12,16 8,16 C 4,16 4,20 6,22 C 8,24 10,24 13,22 C 15,20 16,20 19,18 C 21,16 22,16 24,16 C 26,16 28,18 28,21 C 28,24 26,26 23,26 C 20,26 18,24 16,22 C 14,20 12,16 8,16 Z" 
        fill="url(#infinityFavGradient)" 
        stroke="#2A0A0A" 
        stroke-width="1"/>
  
  <!-- Number 8 -->
  <text x="26" y="28" font-family="Georgia, serif" font-size="10" font-weight="bold" fill="#2A0A0A">8</text>
</svg>
